# xmcd
#
# Track frame offsets: 
#        150
#        15553
#        28334
#        40606
#        51533
#        61469
#        75603
#        89356
#        98821
#        110081
#        126522
#        137737
#        153205
#        169412
#        182001
#        195705
#        206652
#        218529
#        234969
#        252497
#        264523
#        279704
#        295494
#        313021
#
# Disc length: 4317 seconds
#
# Revision: 0
# Processed by: cddbd v1.5.2PL0 Copyright (c) Steve Scherf et al.
# Submitted via: ExactAudioCopy v1.0b1
#
DISCID=6910db18
DTITLE=Various Artist - King of the Road
DYEAR=2010
DGENRE=Country
TTITLE0=Bellamy Brothers - I Need More Of You
TTITLE1=Laura Lee - 9 To 5
TTITLE2=Ralf Paulsen - Die Western von gestern
TTITLE3=Jonny Hill - Die Arbeit hört nie auf
TTITLE4=Jonny Cash - Ballad Of A Teenage Queen
TTITLE5=John Brack - Tha Wabash Cannonball
TTITLE6=Martin Lauer - Taxi nach Texas
TTITLE7=Mérle Haggard - The Legend Of Bonny And Clyde
TTITLE8=The Kendalls - Heaven's Just A Sin Away
TTITLE9=Linda Feller - Warum kann ich nicht vergessen
TTITLE10=Tom Astor and Jonny Cash - Niemand schaut der Zukunft in die Ka
TTITLE10=rten
TTITLE11=Truck Stop - Sqare Dance Darling
TTITLE12=Alabama - She And I
TTITLE13=Billie Joe Spears - '57 Chevrolet
TTITLE14=Gunter Gabriel - Hey, Boss, ich brauch mehr Geld
TTITLE15=Freddy Quinn - Kann Liebe alles verzeihn
TTITLE16=Conway Twitty - I Can't See Me Without You
TTITLE17=Volker Lechtenbrink - Der Spieler
TTITLE18=Tom Astor - ... mit einer starken Frau
TTITLE19=John Brack - Rollin' In My Sweet Babys Arms
TTITLE20=Dough Hawkins - Achy Breaky Heart
TTITLE21=John McGraw - Southern Nights
TTITLE22=Jimmy Lawton - Orange Blossom Special
TTITLE23=Bobbejaan - Ich steh an der Bar und habe kein Geld
EXTD=
EXTT0=
EXTT1=
EXTT2=
EXTT3=
EXTT4=
EXTT5=
EXTT6=
EXTT7=
EXTT8=
EXTT9=
EXTT10=
EXTT11=
EXTT12=
EXTT13=
EXTT14=
EXTT15=
EXTT16=
EXTT17=
EXTT18=
EXTT19=
EXTT20=
EXTT21=
EXTT22=
EXTT23=
PLAYORDER=
